<?xml version="1.0" encoding="utf-8"?>
<!-- Generator: Adobe Illustrator 15.0.0, SVG Export Plug-In . SVG Version: 6.00 Build 0)  -->
<!DOCTYPE svg PUBLIC "-//W3C//DTD SVG 1.1//EN" "http://www.w3.org/Graphics/SVG/1.1/DTD/svg11.dtd">
<svg version="1.1" id="Layer_1" xmlns="http://www.w3.org/2000/svg" xmlns:xlink="http://www.w3.org/1999/xlink" x="0px" y="0px"
	 width="307px" height="409.5px" viewBox="0 0 307 409.5" enable-background="new 0 0 307 409.5" xml:space="preserve">
<polygon fill="#FFFFFF" stroke="#000000" stroke-miterlimit="10" points="156.579,275.954 75.254,248.243 156.579,220.532 
	237.904,248.243 "/>
<path fill="#FFFFFF" stroke="#000000" stroke-miterlimit="10" d="M237.904,88.384c0,6.627-5.373,12-12,12H87.254
	c-6.627,0-12-5.373-12-12V56.962c0-6.627,5.373-12,12-12h138.65c6.627,0,12,5.373,12,12V88.384z"/>
<path fill="#FFFFFF" stroke="#000000" stroke-miterlimit="10" d="M237.904,176.169c0,6.627-5.373,12-12,12H87.254
	c-6.627,0-12-5.373-12-12v-31.422c0-6.628,5.373-12,12-12h138.65c6.627,0,12,5.372,12,12V176.169z"/>
<g>
	<g>
		<line fill="none" stroke="#000000" stroke-miterlimit="10" x1="156.579" y1="100.384" x2="156.579" y2="126.712"/>
		<g>
			<path d="M156.579,132.748c-1.054-2.84-2.852-6.363-4.756-8.547l4.756,1.72l4.755-1.72
				C159.43,126.384,157.632,129.908,156.579,132.748z"/>
		</g>
	</g>
</g>
<g>
	<g>
		<line fill="none" stroke="#000000" stroke-miterlimit="10" x1="156.579" y1="188.169" x2="156.579" y2="214.497"/>
		<g>
			<path d="M156.579,220.532c-1.054-2.84-2.852-6.363-4.756-8.547l4.756,1.72l4.755-1.72
				C159.43,214.169,157.632,217.692,156.579,220.532z"/>
		</g>
	</g>
</g>
<g>
	<g>
		<path fill="none" stroke="#000000" stroke-miterlimit="10" d="M75.254,248.243c-22.676,0-43.834-15.393-43.747-42.213
			c0.104-32.164,0.003-78.551,0.003-94.711c0-23.736,5.908-37.076,37.71-38.515"/>
		<g>
			<path d="M75.254,72.673c-2.814,1.121-6.293,3.002-8.432,4.958l1.606-4.796l-1.833-4.712
				C68.825,69.975,72.39,71.688,75.254,72.673z"/>
		</g>
	</g>
</g>
<path fill="#FFFFFF" stroke="#000000" stroke-miterlimit="10" d="M237.904,351.739c0,6.627-5.373,12-12,12H87.254
	c-6.627,0-12-5.373-12-12v-31.422c0-6.627,5.373-12,12-12h138.65c6.627,0,12,5.373,12,12V351.739z"/>
<g>
	<g>
		<line fill="none" stroke="#000000" stroke-miterlimit="10" x1="156.579" y1="275.954" x2="156.579" y2="302.282"/>
		<g>
			<path d="M156.579,308.317c-1.054-2.84-2.852-6.363-4.756-8.547l4.756,1.72l4.755-1.72
				C159.43,301.954,157.632,305.478,156.579,308.317z"/>
		</g>
	</g>
</g>
<text transform="matrix(1 0 0 1 101.1699 68.8179)"><tspan x="0" y="0" font-family="'MyriadPro-Regular'" font-size="12">Pick a SNP </tspan><tspan x="53.807" y="0" font-family="'MyriadPro-It'" font-size="12">s</tspan><tspan x="58.283" y="0" font-family="'MyriadPro-Regular'" font-size="12"> according</tspan><tspan x="6.541" y="14.4" font-family="'MyriadPro-Regular'" font-size="12">to a </tspan><tspan x="27.972" y="14.4" font-family="'MyriadPro-It'" font-size="12">picking strategy</tspan></text>
<text transform="matrix(1 0 0 1 89.2241 157.3179)"><tspan x="0" y="0" font-family="'MyriadPro-Regular'" font-size="12">Exclude SNPs too close</tspan><tspan x="114.346" y="0" font-family="'MyriadPro-Regular'" font-size="12"> </tspan><tspan x="117.13" y="0" font-family="'MyriadPro-Regular'" font-size="12">to </tspan><tspan x="130.234" y="0" font-family="'MyriadPro-It'" font-size="12">s</tspan><tspan x="13.518" y="14.4" font-family="'MyriadPro-Regular'" font-size="12">via a </tspan><tspan x="38.753" y="14.4" font-family="'MyriadPro-It'" font-size="12">thinning strategy</tspan><tspan x="66.083" y="28.8" font-family="'MyriadPro-Regular'" font-size="12"> </tspan></text>
<text transform="matrix(1 0 0 1 114.106 251.2432)" font-family="'MyriadPro-Regular'" font-size="12">Is it time to stop?</text>
<text transform="matrix(1 0 0 1 115.5879 340.7432)" font-family="'MyriadPro-Regular'" font-size="12">Write out results</text>
<text transform="matrix(1 0 0 1 11.8398 262.2432)" font-family="'MyriadPro-Regular'" font-size="12">No it isn’t!</text>
<text transform="matrix(1 0 0 1 165.0068 295.3179)" font-family="'MyriadPro-Regular'" font-size="12">Yes it is!</text>
<g>
	<g>
		<path fill="none" stroke="#000000" stroke-miterlimit="10" stroke-dasharray="6,6" d="M156.579,363.149
			c0,12.851,22.872,17.16,55.71,17.16c26.33,0,54.238-7.114,54.238-44.28C266.527,300.292,268,89.004,268,60
			c0-42.334-36-49.5-55.711-49.5c-20.289,0-55.71,6.25-55.71,25.833c0,1.52,0,2.232,0,2.599"/>
		<g>
			<path d="M156.579,44.962c-1.054-2.84-2.851-6.363-4.755-8.548l4.756,1.721l4.755-1.72
				C159.43,38.599,157.631,42.123,156.579,44.962z"/>
		</g>
	</g>
</g>
<text transform="matrix(1 0 0 1 144 396.668)"><tspan x="0" y="0" font-family="'MyriadPro-Regular'" font-size="12">Optionally repeat </tspan><tspan x="94.162" y="0" font-family="'MyriadPro-It'" font-size="12">N</tspan><tspan x="101.986" y="0" font-family="'MyriadPro-Regular'" font-size="12"> times</tspan></text>
</svg>
